<mxfile host="app.diagrams.net" modified="2021-12-10T11:49:14.896Z" agent="5.0 (Windows NT 10.0; Win64; x64) AppleWebKit/537.36 (KHTML, like Gecko) Chrome/96.0.4664.93 Safari/537.36" etag="-Cix0zkVaoIIIwFbxhvo" version="15.9.4" type="github">
  <diagram id="lkJuV_8Hjz_u02hnOVFe" name="Page-1">
    <mxGraphModel dx="1422" dy="734" grid="1" gridSize="10" guides="1" tooltips="1" connect="1" arrows="1" fold="1" page="1" pageScale="1" pageWidth="827" pageHeight="1169" math="0" shadow="0">
      <root>
        <mxCell id="0" />
        <mxCell id="1" parent="0" />
        <mxCell id="5u9mOlkTlji1emKZOkSA-1" value="p : platoon" style="html=1;align=left;verticalAlign=top;rounded=1;absoluteArcSize=1;arcSize=10;dashed=0;" parent="1" vertex="1">
          <mxGeometry x="314.37" y="305" width="305.63" height="80" as="geometry" />
        </mxCell>
        <mxCell id="5u9mOlkTlji1emKZOkSA-2" value="connV" style="html=1;" parent="1" vertex="1">
          <mxGeometry x="389.37" y="330" width="50" height="20" as="geometry" />
        </mxCell>
        <mxCell id="5u9mOlkTlji1emKZOkSA-3" value="v3 : vehicle" style="html=1;align=center;verticalAlign=top;rounded=1;absoluteArcSize=1;arcSize=10;dashed=0;" parent="1" vertex="1">
          <mxGeometry x="389.37" y="320" width="95" height="50" as="geometry" />
        </mxCell>
        <mxCell id="5u9mOlkTlji1emKZOkSA-4" value="connV" style="html=1;" parent="1" vertex="1">
          <mxGeometry x="389.37" y="340" width="35" height="20" as="geometry" />
        </mxCell>
        <mxCell id="5u9mOlkTlji1emKZOkSA-5" value="docks" style="html=1;" parent="1" vertex="1">
          <mxGeometry x="454.37" y="340" width="30" height="20" as="geometry" />
        </mxCell>
        <mxCell id="5u9mOlkTlji1emKZOkSA-6" value="connV" style="html=1;" parent="1" vertex="1">
          <mxGeometry x="515" y="330" width="50" height="20" as="geometry" />
        </mxCell>
        <mxCell id="5u9mOlkTlji1emKZOkSA-7" value="v2 : vehicle" style="html=1;align=center;verticalAlign=top;rounded=1;absoluteArcSize=1;arcSize=10;dashed=0;" parent="1" vertex="1">
          <mxGeometry x="515" y="320" width="95" height="50" as="geometry" />
        </mxCell>
        <mxCell id="5u9mOlkTlji1emKZOkSA-8" value="connV" style="html=1;" parent="1" vertex="1">
          <mxGeometry x="515" y="340" width="35" height="20" as="geometry" />
        </mxCell>
        <mxCell id="5u9mOlkTlji1emKZOkSA-9" value="" style="rounded=0;orthogonalLoop=1;jettySize=auto;html=1;endArrow=none;endFill=0;exitX=0;exitY=0.5;exitDx=0;exitDy=0;" parent="1" source="5u9mOlkTlji1emKZOkSA-8" target="5u9mOlkTlji1emKZOkSA-11" edge="1">
          <mxGeometry relative="1" as="geometry">
            <mxPoint x="484.37" y="350" as="sourcePoint" />
          </mxGeometry>
        </mxCell>
        <mxCell id="5u9mOlkTlji1emKZOkSA-10" value="" style="rounded=0;orthogonalLoop=1;jettySize=auto;html=1;endArrow=halfCircle;endFill=0;endSize=6;strokeWidth=1;exitX=1;exitY=0.5;exitDx=0;exitDy=0;" parent="1" source="5u9mOlkTlji1emKZOkSA-22" edge="1">
          <mxGeometry relative="1" as="geometry">
            <mxPoint x="490" y="390" as="sourcePoint" />
            <mxPoint x="500" y="350" as="targetPoint" />
            <Array as="points">
              <mxPoint x="500" y="350" />
            </Array>
          </mxGeometry>
        </mxCell>
        <mxCell id="5u9mOlkTlji1emKZOkSA-11" value="" style="ellipse;whiteSpace=wrap;html=1;fontFamily=Helvetica;fontSize=12;fontColor=#000000;align=center;strokeColor=#000000;fillColor=#ffffff;points=[];aspect=fixed;resizable=0;" parent="1" vertex="1">
          <mxGeometry x="495" y="345" width="10" height="10" as="geometry" />
        </mxCell>
        <mxCell id="5u9mOlkTlji1emKZOkSA-12" value="docks" style="html=1;" parent="1" vertex="1">
          <mxGeometry x="580" y="340" width="30" height="20" as="geometry" />
        </mxCell>
        <mxCell id="5u9mOlkTlji1emKZOkSA-13" value="leader" style="html=1;" parent="1" vertex="1">
          <mxGeometry x="314.37" y="340" width="35" height="20" as="geometry" />
        </mxCell>
        <mxCell id="5u9mOlkTlji1emKZOkSA-14" value="" style="rounded=0;orthogonalLoop=1;jettySize=auto;html=1;endArrow=none;endFill=0;exitX=0;exitY=0.5;exitDx=0;exitDy=0;" parent="1" source="5u9mOlkTlji1emKZOkSA-4" edge="1">
          <mxGeometry relative="1" as="geometry">
            <mxPoint x="410" y="420" as="sourcePoint" />
            <mxPoint x="369.3699999999999" y="350" as="targetPoint" />
            <Array as="points" />
          </mxGeometry>
        </mxCell>
        <mxCell id="5u9mOlkTlji1emKZOkSA-15" value="" style="rounded=0;orthogonalLoop=1;jettySize=auto;html=1;endArrow=halfCircle;endFill=0;endSize=6;strokeWidth=1;" parent="1" edge="1">
          <mxGeometry relative="1" as="geometry">
            <mxPoint x="372.3699999999999" y="350" as="sourcePoint" />
            <mxPoint x="372.3699999999999" y="350" as="targetPoint" />
          </mxGeometry>
        </mxCell>
        <mxCell id="5u9mOlkTlji1emKZOkSA-16" value="" style="ellipse;whiteSpace=wrap;html=1;fontFamily=Helvetica;fontSize=12;fontColor=#000000;align=center;strokeColor=#000000;fillColor=#ffffff;points=[];aspect=fixed;resizable=0;" parent="1" vertex="1">
          <mxGeometry x="360" y="345" width="10" height="10" as="geometry" />
        </mxCell>
        <mxCell id="5u9mOlkTlji1emKZOkSA-17" value="" style="rounded=0;orthogonalLoop=1;jettySize=auto;html=1;endArrow=halfCircle;endFill=0;endSize=6;strokeWidth=1;exitX=1;exitY=0.5;exitDx=0;exitDy=0;" parent="1" source="5u9mOlkTlji1emKZOkSA-13" edge="1">
          <mxGeometry relative="1" as="geometry">
            <mxPoint x="389.37" y="350" as="sourcePoint" />
            <mxPoint x="365" y="350" as="targetPoint" />
            <Array as="points" />
          </mxGeometry>
        </mxCell>
        <mxCell id="5u9mOlkTlji1emKZOkSA-21" value="2" style="ellipse;fillColor=#ffffff;strokeColor=#000000;fontSize=18;" parent="1" vertex="1">
          <mxGeometry x="340" y="160" width="30" height="30" as="geometry" />
        </mxCell>
        <mxCell id="5u9mOlkTlji1emKZOkSA-22" value="next" style="html=1;" parent="1" vertex="1">
          <mxGeometry x="454.37" y="340" width="30" height="20" as="geometry" />
        </mxCell>
        <mxCell id="5u9mOlkTlji1emKZOkSA-23" value="next" style="html=1;" parent="1" vertex="1">
          <mxGeometry x="580" y="340" width="30" height="20" as="geometry" />
        </mxCell>
        <mxCell id="5u9mOlkTlji1emKZOkSA-24" value="&lt;div align=&quot;left&quot;&gt;r : road&lt;/div&gt;" style="html=1;align=left;verticalAlign=top;rounded=1;absoluteArcSize=1;arcSize=10;dashed=0;" parent="1" vertex="1">
          <mxGeometry x="150" y="295" width="90" height="40" as="geometry" />
        </mxCell>
        <mxCell id="5u9mOlkTlji1emKZOkSA-25" value="" style="rounded=0;orthogonalLoop=1;jettySize=auto;html=1;endArrow=none;endFill=0;exitX=1;exitY=0.5;exitDx=0;exitDy=0;" parent="1" source="5u9mOlkTlji1emKZOkSA-24" edge="1">
          <mxGeometry relative="1" as="geometry">
            <mxPoint x="375" y="430" as="sourcePoint" />
            <mxPoint x="260" y="255" as="targetPoint" />
            <Array as="points">
              <mxPoint x="260" y="315" />
              <mxPoint x="260" y="255" />
            </Array>
          </mxGeometry>
        </mxCell>
        <mxCell id="5u9mOlkTlji1emKZOkSA-26" value="v1 :&amp;nbsp; vehicle" style="html=1;align=center;verticalAlign=top;rounded=1;absoluteArcSize=1;arcSize=10;dashed=0;" parent="1" vertex="1">
          <mxGeometry x="315" y="225" width="95" height="50" as="geometry" />
        </mxCell>
        <mxCell id="5u9mOlkTlji1emKZOkSA-27" value="connV" style="html=1;" parent="1" vertex="1">
          <mxGeometry x="315" y="245" width="35" height="20" as="geometry" />
        </mxCell>
        <mxCell id="5u9mOlkTlji1emKZOkSA-28" value="next" style="html=1;" parent="1" vertex="1">
          <mxGeometry x="380" y="245" width="30" height="20" as="geometry" />
        </mxCell>
        <mxCell id="5u9mOlkTlji1emKZOkSA-29" value="" style="rounded=0;orthogonalLoop=1;jettySize=auto;html=1;endArrow=none;endFill=0;exitX=1;exitY=0.5;exitDx=0;exitDy=0;" parent="1" source="5u9mOlkTlji1emKZOkSA-24" edge="1">
          <mxGeometry relative="1" as="geometry">
            <mxPoint x="238" y="434" as="sourcePoint" />
            <mxPoint x="260" y="350" as="targetPoint" />
            <Array as="points">
              <mxPoint x="260" y="315" />
            </Array>
          </mxGeometry>
        </mxCell>
        <mxCell id="5u9mOlkTlji1emKZOkSA-30" value="" style="ellipse;whiteSpace=wrap;html=1;fontFamily=Helvetica;fontSize=12;fontColor=#000000;align=center;strokeColor=#000000;fillColor=#ffffff;points=[];aspect=fixed;resizable=0;" parent="1" vertex="1">
          <mxGeometry x="286.87" y="345" width="10" height="10" as="geometry" />
        </mxCell>
        <mxCell id="5u9mOlkTlji1emKZOkSA-31" value="" style="rounded=1;orthogonalLoop=1;jettySize=auto;html=1;endArrow=halfCircle;endFill=0;endSize=6;strokeWidth=1;targetPerimeterSpacing=-3;sourcePerimeterSpacing=0;" parent="1" target="5u9mOlkTlji1emKZOkSA-30" edge="1">
          <mxGeometry relative="1" as="geometry">
            <mxPoint x="260" y="350" as="sourcePoint" />
            <mxPoint x="291.87" y="350" as="targetPoint" />
            <Array as="points">
              <mxPoint x="270" y="350" />
              <mxPoint x="280" y="350" />
            </Array>
          </mxGeometry>
        </mxCell>
        <mxCell id="5u9mOlkTlji1emKZOkSA-32" value="connV" style="html=1;" parent="1" vertex="1">
          <mxGeometry x="200" y="305" width="40" height="20" as="geometry" />
        </mxCell>
        <mxCell id="5u9mOlkTlji1emKZOkSA-33" value="moving" style="html=1;" parent="1" vertex="1">
          <mxGeometry x="200" y="305" width="40" height="20" as="geometry" />
        </mxCell>
        <mxCell id="5u9mOlkTlji1emKZOkSA-34" value="" style="rounded=0;orthogonalLoop=1;jettySize=auto;html=1;endArrow=none;endFill=0;exitX=0;exitY=0.5;exitDx=0;exitDy=0;" parent="1" source="5u9mOlkTlji1emKZOkSA-13" edge="1">
          <mxGeometry relative="1" as="geometry">
            <mxPoint x="311.87" y="350" as="sourcePoint" />
            <mxPoint x="296.8699999999999" y="350" as="targetPoint" />
          </mxGeometry>
        </mxCell>
        <mxCell id="5u9mOlkTlji1emKZOkSA-35" value="" style="ellipse;whiteSpace=wrap;html=1;fontFamily=Helvetica;fontSize=12;fontColor=#000000;align=center;strokeColor=#000000;fillColor=#ffffff;points=[];aspect=fixed;resizable=0;" parent="1" vertex="1">
          <mxGeometry x="285" y="250" width="10" height="10" as="geometry" />
        </mxCell>
        <mxCell id="5u9mOlkTlji1emKZOkSA-36" value="" style="rounded=0;orthogonalLoop=1;jettySize=auto;html=1;endArrow=halfCircle;endFill=0;endSize=6;strokeWidth=1;" parent="1" target="5u9mOlkTlji1emKZOkSA-35" edge="1">
          <mxGeometry relative="1" as="geometry">
            <mxPoint x="260" y="255" as="sourcePoint" />
            <mxPoint x="290" y="245" as="targetPoint" />
            <Array as="points" />
          </mxGeometry>
        </mxCell>
        <mxCell id="5u9mOlkTlji1emKZOkSA-37" value="" style="rounded=0;orthogonalLoop=1;jettySize=auto;html=1;endArrow=none;endFill=0;exitX=0;exitY=0.5;exitDx=0;exitDy=0;" parent="1" edge="1">
          <mxGeometry relative="1" as="geometry">
            <mxPoint x="315" y="255" as="sourcePoint" />
            <mxPoint x="295" y="255" as="targetPoint" />
          </mxGeometry>
        </mxCell>
        <mxCell id="5u9mOlkTlji1emKZOkSA-38" value="&lt;font style=&quot;font-size: 14px&quot;&gt;System running&lt;br&gt;&lt;/font&gt;" style="text;html=1;align=center;verticalAlign=middle;resizable=0;points=[];autosize=1;" parent="1" vertex="1">
          <mxGeometry x="190" y="200" width="110" height="20" as="geometry" />
        </mxCell>
        <mxCell id="5u9mOlkTlji1emKZOkSA-39" value="" style="endArrow=open;endFill=1;endSize=12;html=1;strokeWidth=3;" parent="1" edge="1">
          <mxGeometry width="160" relative="1" as="geometry">
            <mxPoint x="325" y="210" as="sourcePoint" />
            <mxPoint x="395" y="210" as="targetPoint" />
          </mxGeometry>
        </mxCell>
        <mxCell id="5u9mOlkTlji1emKZOkSA-40" value="&lt;font style=&quot;font-size: 14px&quot;&gt;SystemLog : v3.passRelay()&lt;/font&gt;" style="text;html=1;align=center;verticalAlign=middle;resizable=0;points=[];autosize=1;" parent="1" vertex="1">
          <mxGeometry x="395" y="200" width="190" height="20" as="geometry" />
        </mxCell>
        <mxCell id="pqJGfPliOIPzBImoTOdj-1" value="&lt;font style=&quot;font-size: 14px&quot;&gt;Test Events &lt;/font&gt;" style="text;html=1;align=center;verticalAlign=middle;resizable=0;points=[];autosize=1;fontSize=18;" vertex="1" parent="1">
          <mxGeometry x="110" y="425" width="90" height="30" as="geometry" />
        </mxCell>
        <mxCell id="pqJGfPliOIPzBImoTOdj-2" value="Reconfiguration&lt;br&gt;Path" style="text;html=1;align=center;verticalAlign=middle;resizable=0;points=[];autosize=1;fontSize=18;" vertex="1" parent="1">
          <mxGeometry x="80" y="566" width="140" height="50" as="geometry" />
        </mxCell>
        <mxCell id="pqJGfPliOIPzBImoTOdj-3" value="" style="endArrow=open;startArrow=circle;endFill=0;startFill=1;endSize=8;html=1;strokeWidth=4;fontSize=18;" edge="1" parent="1">
          <mxGeometry width="160" relative="1" as="geometry">
            <mxPoint x="234.3800000000001" y="515.6700000000001" as="sourcePoint" />
            <mxPoint x="323.76" y="515.5" as="targetPoint" />
          </mxGeometry>
        </mxCell>
        <mxCell id="pqJGfPliOIPzBImoTOdj-4" value="C1" style="text;html=1;align=center;verticalAlign=middle;resizable=0;points=[];autosize=1;fontSize=18;" vertex="1" parent="1">
          <mxGeometry x="220" y="566" width="40" height="30" as="geometry" />
        </mxCell>
        <mxCell id="pqJGfPliOIPzBImoTOdj-5" value="" style="endArrow=open;startArrow=circle;endFill=0;startFill=1;endSize=8;html=1;strokeWidth=4;fontSize=18;" edge="1" parent="1">
          <mxGeometry width="160" relative="1" as="geometry">
            <mxPoint x="438.3800000000001" y="515.6700000000001" as="sourcePoint" />
            <mxPoint x="558.3800000000001" y="515.5" as="targetPoint" />
          </mxGeometry>
        </mxCell>
        <mxCell id="pqJGfPliOIPzBImoTOdj-6" value="" style="endArrow=open;startArrow=circle;endFill=0;startFill=1;endSize=8;html=1;strokeWidth=4;fontSize=18;" edge="1" parent="1">
          <mxGeometry width="160" relative="1" as="geometry">
            <mxPoint x="560.25" y="515.6700000000001" as="sourcePoint" />
            <mxPoint x="655.2600000000002" y="516" as="targetPoint" />
          </mxGeometry>
        </mxCell>
        <mxCell id="pqJGfPliOIPzBImoTOdj-7" value="" style="endArrow=none;startArrow=circle;endFill=0;startFill=1;endSize=8;html=1;strokeWidth=4;fontSize=18;" edge="1" parent="1">
          <mxGeometry width="160" relative="1" as="geometry">
            <mxPoint x="658.3800000000001" y="515.8400000000001" as="sourcePoint" />
            <mxPoint x="678.3800000000001" y="515.5" as="targetPoint" />
          </mxGeometry>
        </mxCell>
        <mxCell id="pqJGfPliOIPzBImoTOdj-8" value="C4" style="text;html=1;align=center;verticalAlign=middle;resizable=0;points=[];autosize=1;fontSize=18;" vertex="1" parent="1">
          <mxGeometry x="555" y="566" width="40" height="30" as="geometry" />
        </mxCell>
        <mxCell id="pqJGfPliOIPzBImoTOdj-9" value="&lt;font style=&quot;font-size: 14px&quot;&gt;passRelay&lt;/font&gt;" style="text;html=1;align=center;verticalAlign=middle;resizable=0;points=[];autosize=1;fontSize=18;" vertex="1" parent="1">
          <mxGeometry x="365" y="481" width="80" height="30" as="geometry" />
        </mxCell>
        <mxCell id="pqJGfPliOIPzBImoTOdj-10" value="" style="endArrow=classic;html=1;strokeWidth=4;fontSize=18;" edge="1" parent="1">
          <mxGeometry width="50" height="50" relative="1" as="geometry">
            <mxPoint x="377.5" y="451" as="sourcePoint" />
            <mxPoint x="337.5" y="506" as="targetPoint" />
            <Array as="points">
              <mxPoint x="347.5" y="481" />
              <mxPoint x="368.5" y="481" />
            </Array>
          </mxGeometry>
        </mxCell>
        <mxCell id="pqJGfPliOIPzBImoTOdj-11" value="&lt;font style=&quot;font-size: 14px&quot;&gt;v2.join(v3)&lt;/font&gt;" style="text;html=1;align=center;verticalAlign=middle;resizable=0;points=[];autosize=1;fontSize=18;" vertex="1" parent="1">
          <mxGeometry x="244.38" y="425" width="80" height="30" as="geometry" />
        </mxCell>
        <mxCell id="pqJGfPliOIPzBImoTOdj-12" value="" style="endArrow=open;startArrow=circle;endFill=0;startFill=1;endSize=8;html=1;strokeWidth=4;fontSize=18;" edge="1" parent="1">
          <mxGeometry width="160" relative="1" as="geometry">
            <mxPoint x="325" y="515.6700000000001" as="sourcePoint" />
            <mxPoint x="444.3800000000001" y="516" as="targetPoint" />
          </mxGeometry>
        </mxCell>
        <mxCell id="pqJGfPliOIPzBImoTOdj-13" value="C2" style="text;html=1;align=center;verticalAlign=middle;resizable=0;points=[];autosize=1;fontSize=18;" vertex="1" parent="1">
          <mxGeometry x="325" y="566" width="40" height="30" as="geometry" />
        </mxCell>
        <mxCell id="pqJGfPliOIPzBImoTOdj-14" value="C3" style="text;html=1;align=center;verticalAlign=middle;resizable=0;points=[];autosize=1;fontSize=18;" vertex="1" parent="1">
          <mxGeometry x="438.38" y="566" width="40" height="30" as="geometry" />
        </mxCell>
        <mxCell id="pqJGfPliOIPzBImoTOdj-15" value="&lt;font style=&quot;font-size: 14px&quot;&gt;run&lt;/font&gt;" style="text;html=1;align=center;verticalAlign=middle;resizable=0;points=[];autosize=1;fontSize=18;" vertex="1" parent="1">
          <mxGeometry x="600.88" y="481" width="40" height="30" as="geometry" />
        </mxCell>
        <mxCell id="pqJGfPliOIPzBImoTOdj-16" value="4" style="ellipse;fillColor=#ffffff;strokeColor=#000000;fontSize=18;" vertex="1" parent="1">
          <mxGeometry x="584.37" y="390" width="30" height="30" as="geometry" />
        </mxCell>
        <mxCell id="pqJGfPliOIPzBImoTOdj-17" value="3" style="ellipse;fillColor=#ffffff;strokeColor=#000000;fontSize=18;" vertex="1" parent="1">
          <mxGeometry x="470.88" y="390" width="30" height="30" as="geometry" />
        </mxCell>
        <mxCell id="pqJGfPliOIPzBImoTOdj-18" value="2" style="ellipse;fillColor=#ffffff;strokeColor=#000000;fontSize=18;" vertex="1" parent="1">
          <mxGeometry x="360" y="390" width="30" height="30" as="geometry" />
        </mxCell>
        <mxCell id="pqJGfPliOIPzBImoTOdj-19" value="1" style="ellipse;fillColor=#ffffff;strokeColor=#000000;fontSize=18;" vertex="1" parent="1">
          <mxGeometry x="260" y="390" width="30" height="30" as="geometry" />
        </mxCell>
        <mxCell id="pqJGfPliOIPzBImoTOdj-20" value="&lt;font style=&quot;font-size: 14px&quot;&gt;acceptJoin&lt;/font&gt;" style="text;html=1;align=center;verticalAlign=middle;resizable=0;points=[];autosize=1;fontSize=18;" vertex="1" parent="1">
          <mxGeometry x="260" y="481" width="80" height="30" as="geometry" />
        </mxCell>
        <mxCell id="pqJGfPliOIPzBImoTOdj-21" value="&lt;font style=&quot;font-size: 14px&quot;&gt;acceptQuit&lt;/font&gt;" style="text;html=1;align=center;verticalAlign=middle;resizable=0;points=[];autosize=1;fontSize=18;" vertex="1" parent="1">
          <mxGeometry x="470.88" y="481" width="80" height="30" as="geometry" />
        </mxCell>
        <mxCell id="pqJGfPliOIPzBImoTOdj-22" value="&lt;font style=&quot;font-size: 14px&quot;&gt; δ&lt;/font&gt;" style="text;html=1;align=center;verticalAlign=middle;resizable=0;points=[];autosize=1;fontSize=18;" vertex="1" parent="1">
          <mxGeometry x="480" y="425" width="20" height="30" as="geometry" />
        </mxCell>
        <mxCell id="pqJGfPliOIPzBImoTOdj-23" value="&lt;font style=&quot;font-size: 14px&quot;&gt; δ&lt;/font&gt;" style="text;html=1;align=center;verticalAlign=middle;resizable=0;points=[];autosize=1;fontSize=18;" vertex="1" parent="1">
          <mxGeometry x="370" y="425" width="20" height="30" as="geometry" />
        </mxCell>
        <mxCell id="pqJGfPliOIPzBImoTOdj-24" value="&lt;font style=&quot;font-size: 14px&quot;&gt;Steps&lt;/font&gt;" style="text;html=1;align=center;verticalAlign=middle;resizable=0;points=[];autosize=1;strokeColor=none;" vertex="1" parent="1">
          <mxGeometry x="130" y="400" width="50" height="20" as="geometry" />
        </mxCell>
        <mxCell id="pqJGfPliOIPzBImoTOdj-25" value="&lt;font style=&quot;font-size: 14px&quot;&gt;Execution Trace&lt;/font&gt;" style="text;html=1;align=center;verticalAlign=middle;resizable=0;points=[];autosize=1;strokeColor=none;" vertex="1" parent="1">
          <mxGeometry x="90" y="506" width="120" height="20" as="geometry" />
        </mxCell>
        <mxCell id="pqJGfPliOIPzBImoTOdj-26" value="&lt;font style=&quot;font-size: 16px&quot;&gt;run&lt;/font&gt;" style="text;html=1;align=center;verticalAlign=middle;resizable=0;points=[];autosize=1;fontSize=18;" vertex="1" parent="1">
          <mxGeometry x="600.88" y="566" width="40" height="30" as="geometry" />
        </mxCell>
        <mxCell id="pqJGfPliOIPzBImoTOdj-27" value="&lt;font style=&quot;font-size: 14px&quot;&gt;acceptJoin&lt;/font&gt;" style="text;html=1;align=center;verticalAlign=middle;resizable=0;points=[];autosize=1;fontSize=18;" vertex="1" parent="1">
          <mxGeometry x="255" y="566" width="80" height="30" as="geometry" />
        </mxCell>
        <mxCell id="pqJGfPliOIPzBImoTOdj-28" value="&lt;font style=&quot;font-size: 14px&quot;&gt;acceptQuit&lt;/font&gt;" style="text;html=1;align=center;verticalAlign=middle;resizable=0;points=[];autosize=1;fontSize=18;" vertex="1" parent="1">
          <mxGeometry x="478.38" y="566" width="80" height="30" as="geometry" />
        </mxCell>
        <mxCell id="pqJGfPliOIPzBImoTOdj-29" value="" style="endArrow=classic;html=1;strokeWidth=4;fontSize=18;" edge="1" parent="1">
          <mxGeometry width="50" height="50" relative="1" as="geometry">
            <mxPoint x="490.8800000000001" y="451" as="sourcePoint" />
            <mxPoint x="450.8800000000001" y="506" as="targetPoint" />
            <Array as="points">
              <mxPoint x="460.88" y="481" />
              <mxPoint x="481.88" y="481" />
            </Array>
          </mxGeometry>
        </mxCell>
        <mxCell id="pqJGfPliOIPzBImoTOdj-30" value="" style="endArrow=classic;html=1;strokeWidth=4;fontSize=18;" edge="1" parent="1">
          <mxGeometry width="50" height="50" relative="1" as="geometry">
            <mxPoint x="605.2600000000002" y="451" as="sourcePoint" />
            <mxPoint x="565.2600000000002" y="506" as="targetPoint" />
            <Array as="points">
              <mxPoint x="575.26" y="481" />
              <mxPoint x="596.26" y="481" />
            </Array>
          </mxGeometry>
        </mxCell>
        <mxCell id="pqJGfPliOIPzBImoTOdj-31" value="" style="endArrow=classic;html=1;strokeWidth=4;fontSize=18;" edge="1" parent="1">
          <mxGeometry width="50" height="50" relative="1" as="geometry">
            <mxPoint x="285" y="451" as="sourcePoint" />
            <mxPoint x="245" y="506" as="targetPoint" />
            <Array as="points">
              <mxPoint x="255" y="481" />
              <mxPoint x="276" y="481" />
            </Array>
          </mxGeometry>
        </mxCell>
        <mxCell id="pqJGfPliOIPzBImoTOdj-32" value="&lt;font style=&quot;font-size: 14px&quot;&gt; δ&lt;/font&gt;" style="text;html=1;align=center;verticalAlign=middle;resizable=0;points=[];autosize=1;fontSize=18;" vertex="1" parent="1">
          <mxGeometry x="595" y="425" width="20" height="30" as="geometry" />
        </mxCell>
        <mxCell id="pqJGfPliOIPzBImoTOdj-33" value="&lt;font style=&quot;font-size: 14px&quot;&gt;passRelay&lt;/font&gt;" style="text;html=1;align=center;verticalAlign=middle;resizable=0;points=[];autosize=1;fontSize=18;" vertex="1" parent="1">
          <mxGeometry x="365" y="566" width="80" height="30" as="geometry" />
        </mxCell>
      </root>
    </mxGraphModel>
  </diagram>
</mxfile>
